{"title":"The.Wedding.Party.2010.DVDRip.XviD-PHOBOS","uid":8259186,"size":734905297,"categoryP":"video","categoryS":"movies","magnet":"?xt=urn:btih:e15f37e6e3bb8a1216e0b46003a27bf8db9d6dfc&amp;dn=The.Wedding.Party.2010.DVDRip.XviD-PHOBOS&amp;tr=udp%3A%2F%2Ftracker.openbittorrent.com%3A80&amp;tr=udp%3A%2F%2Fopen.demonii.com%3A1337&amp;tr=udp%3A%2F%2Ftracker.coppersurfer.tk%3A6969&amp;tr=udp%3A%2F%2Fexodus.desync.com%3A6969","seeders":0,"leechers":1,"uploader":"sceneline","files":54,"time":1363339184,"description":"- &lt;a href=&quot;\nhttp://www.Speed.Cd&quot; rel=&quot;nofollow&quot; target=&quot;_NEW&quot;&gt;\nhttp://www.Speed.Cd&lt;/a&gt;\n &lt;a href=&quot;\nhttp://www.Speed.Cd&quot; rel=&quot;nofollow&quot; target=&quot;_NEW&quot;&gt;\nhttp://www.Speed.Cd&lt;/a&gt;       the fast  and The Hottest Private Tracker on the net\n\nPlease Seed back to make the speed Faster!!\n ............ NFO .............\n-\n                        ______  _   _  _____ ______  _____  _____\n                        | ___ | | | ||  _  || ___ |  _  |/  ___|\n                        | |_/ /| |_| || | | || |_/ /| | | | `--.\n                        |  __/ |  _  || | | || ___ | | | | `--. \n                        | |    | | | | _/ /| |_/ / _/ //__/ /\n                        _|    _| |_/ ___/ ____/  ___/ ____/\n                                     Proudly Presents\n   \n                          The.Wedding.Party.2010.DVDRip.XviD-PHOBOS                        \n                                                                                           \n      Release Date .....: Today!                                                           \n      Runtime ..........: 1h 33mn                                                          \n      Language .........: English                                                          \n      URL ..............: http://www.imdb.com/title/tt1465496                              \n      File Size ........: 699 MiB                                                          \n                                                                                           \n      Summary   \n                                                                                           \n      When Steve's secret marriage of convenience is discovered by his family, he finds    \n      himself at the centre of the world's most farcical wedding, the only problem is, he  \n      is in love with somebody else.                                                       \n                                                                                           \n     Tech Info  \n                                                                                           \n      General                                                                              \n      Format                                   : AVI                                       \n      Format/Info                              : Audio Video Interleave                    \n      File size                                : 699 MiB                                   \n      Duration                                 : 1h 33mn                                   \n      Overall bit rate mode                    : Variable                                  \n      Overall bit rate                         : 1 049 Kbps                                \n                                                                                           \n      Video                                                                                \n      ID                                       : 0                                         \n      Format                                   : MPEG-4 Visual                             \n      Format profile                           : Advanced Simple@L5                        \n      Format settings, BVOP                    : 2                                         \n      Format settings, QPel                    : No                                        \n      Format settings, GMC                     : No warppoints                             \n      Format settings, Matrix                  : Default (H.263)                           \n      Codec ID                                 : XVID                                      \n      Codec ID/Hint                            : XviD                                      \n      Duration                                 : 1h 33mn                                   \n      Bit rate                                 : 920 Kbps                                  \n      Width                                    : 640 pixels                                \n      Height                                   : 272 pixels                                \n      Display aspect ratio                     : 2.35:1                                    \n      Frame rate                               : 25.000 fps                                \n      Color space                              : YUV                                       \n      Chroma subsampling                       : 4:2:0                                     \n      Bit depth                                : 8 bits                                    \n      Scan type                                : Progressive                               \n      Compression mode                         : Lossy                                     \n      Bits/(Pixel*Frame)                       : 0.211                                     \n      Stream size                              : 613 MiB (88%)                             \n      Writing library                          : XviD 64                                   \n                                                                                           \n      Audio                                                                                \n      ID                                       : 1                                         \n      Format                                   : MPEG Audio                                \n      Format version                           : Version 1                                 \n      Format profile                           : Layer 3                                   \n      Mode                                     : Joint stereo                              \n      Mode extension                           : MS Stereo                                 \n      Codec ID                                 : 55                                        \n      Codec ID/Hint                            : MP3                                       \n      Duration                                 : 1h 33mn                                   \n      Bit rate mode                            : Variable                                  \n      Bit rate                                 : 116 Kbps                                  \n      Nominal bit rate                         : 128 Kbps                                  \n      Channel(s)                               : 2 channels                                \n      Sampling rate                            : 48.0 KHz                                  \n      Compression mode                         : Lossy                                     \n      Stream size                              : 77.3 MiB (11%)                            \n      Alignment                                : Aligned on interleaves                    \n      Interleave, duration                     : 24 ms (0.60 video frame)                  \n      Interleave, preload duration             : 165 ms                                    \n      Title                                    : party T80 3_2ch 48KHz 448Kbps DELAY 0ms   \n      Writing library                          : LAME3.99r                                 \n                                                                                           \n     Group Info  \n                                                                                           \n      Our mission is to provide the scene with decent quality rips of old TV classics.     \n                                                                                           \n      Greets fly out to ARCHiViST, GERUDO, INQUISITION, RedBlade, REWARD, and everyone     \n      that helped us; you know who you guys are!                                           \n                                                                                           \n      Looking for decent affil sites (no rented/colo) and rippers/cappers.                 \n                                                                                           \n      Ask around for us.","torrent":{"xt":"urn:btih:e15f37e6e3bb8a1216e0b46003a27bf8db9d6dfc","amp;dn":"The.Wedding.Party.2010.DVDRip.XviD-PHOBOS","amp;tr":["udp%3A%2F%2Ftracker.openbittorrent.com%3A80","udp%3A%2F%2Fopen.demonii.com%3A1337","udp%3A%2F%2Ftracker.coppersurfer.tk%3A6969","udp%3A%2F%2Fexodus.desync.com%3A6969"],"infoHash":"e15f37e6e3bb8a1216e0b46003a27bf8db9d6dfc","infoHashBuffer":{"type":"Buffer","data":[225,95,55,230,227,187,138,18,22,224,180,96,3,162,123,248,219,157,109,252]},"announce":[],"urlList":[]}}